<svg xmlns="http://www.w3.org/2000/svg" viewBox="0 0 3000 3000" width="3000" height="3000"><g transform="translate(524.0 210.0) rotate(0.0 1149.0 807.0) scale(2.005725657228642 2.0037492706302995)"><svg width="1145.72" height="805.49" viewBox="0 0 1145.72 805.49"><g fill="#9fc7fe"><path d="M238.773 316.474 0 361.86l187.195 443.63 263.552-62.251zm275.724-149.467L295.54 206.514l270.1 509.588 244.929-57.852zM737.004 0 536.767 33.548l380.719 599.448 228.234-53.908z"/></g></svg></g><g transform="translate(306.0 818.0) rotate(0.0 1169.0 953.0) scale(1.9960574024446154 1.9959076562850149)"><svg width="1171.309" height="954.954" viewBox="0 0 1171.309 954.954"><g fill="#231f20"><path d="M1055.994 117.464c-134.351-97.212-344.857-99.506-470.179-5.123-115.833 87.237-118.337 226.526-11.969 323.879L102.178 884.049l43.946 49.42 397.063-375.695 6.544.763a28.525 28.525 0 0 0 21.807-6.624l39.233-33.442c6.869-5.855 8.125-15.988 2.895-23.343l-.027-.038 18.373-16.51c134.096 77.706 323.944 73.452 440.332-14.202 125.321-94.383 118.001-249.701-16.35-346.913zm-12.202 326.255c-102.426 77.14-269.313 81.101-387.61 13.141l.328-.295-57.749-44-.817.776c-87.89-85.605-83.643-204.979 16.422-280.34 110.613-83.305 296.412-81.281 414.995 4.522s125.043 222.892 14.431 306.197z" opacity=".5"/><path d="M1038.923 86.957C920.34 1.155 734.541-.87 623.928 82.436c-32.388 24.392-54.738 53.395-67.176 84.371-6.212 15.47-13.181 38.968-14.463 55.094 0 0 .756 1.03 0 10.535l2.057 14.745c3.85-48.415 29.847-95.355 78.409-131.928 110.613-83.305 296.412-81.281 414.995 4.522 60.047 43.448 91.334 100.047 93.239 156.154-.08 2.529.047 1.969.047 1.969.117 5.392 3.211 10.778 2.784 16.146 0 0 1.777-26.809 1.572-32.859.632-19.883-5.674-47.472-12.433-67.084-13.466-39.076-41.55-76.401-84.036-107.142z"/><path d="M1081.905 413.813c-125.321 94.383-335.828 92.089-470.179-5.123-53.484-38.699-86.836-86.607-99.703-136.213-5.265-20.297-7.1-33.341-5.482-53.693l-2.665 33.513c-5.574 70.09 29.817 142.909 105.185 197.442 134.351 97.212 344.857 99.506 470.179 5.123 55.02-41.437 84.473-94.618 88.836-149.471l2.665-33.513c-1.353 17.014-5.12 26.33-11.315 42.722-13.778 36.455-39.566 70.628-77.52 99.212z"/><path d="M1052.181 415.433c-54.238 40.852-126.548 61.182-200.161 61.182-76.505 0-154.397-21.968-214.838-65.7-21.836-15.801-39.872-33.347-54.071-51.968-.49-.645-.98-1.291-1.458-1.936-61.267-82.183-48.441-184.862 41.103-252.296 99.919-75.25 261.188-80.867 378.856-18.012 12.585 6.729 24.681 14.235 36.143 22.53a176.26 176.26 0 0 1 3.347 2.474c115.337 85.935 120.644 221.208 11.08 303.725z" opacity=".2"/><path d="M1073.968 341.34c-51.227 38.584-119.522 57.786-189.048 57.786-72.257 0-145.825-20.748-202.91-62.052-20.624-14.924-37.658-31.495-51.069-49.082-.463-.61-.926-1.219-1.377-1.829-32.043-42.982-42.614-91.899-31.319-137.814-41.207 59.119-38.655 131.448 6.485 191.999.451.61.914 1.219 1.377 1.829 13.411 17.587 30.445 34.159 51.069 49.082 57.086 41.304 130.653 62.052 202.91 62.052 69.526 0 137.821-19.201 189.048-57.786 37.749-28.43 61.043-63.493 70.139-100.503-11.618 16.675-26.698 32.305-45.304 46.319z" opacity=".2"/></g><path d="M1052.181 415.433c-54.238 40.852-126.548 61.182-200.161 61.182-76.505 0-154.397-21.968-214.838-65.7-21.836-15.801-39.872-33.347-54.071-51.968-.49-.645-.98-1.291-1.458-1.936.49-4.004 1.088-8.008 1.817-12.012 27.633-152.317 223.802-317.936 457.632-233.292 115.337 85.935 120.644 221.208 11.08 303.725z" fill="#fefdfd" opacity=".5"/><path d="m536.328 432.444 46.728-39.784c5.895-5.019 16.935-3.524 28.91 4.986 16.692 11.861 28.88 32.859 27.223 46.899-.468 3.967-1.992 6.955-4.314 8.932l-46.728 39.784c2.322-1.977 3.846-4.964 4.314-8.932 1.657-14.04-10.531-35.038-27.223-46.899-11.975-8.51-23.015-10.005-28.91-4.986z" fill="#231f20"/><path d="M478.134 470.326c2.251-19.073 22.458-21.473 45.134-5.36 22.675 16.113 39.232 44.638 36.981 63.711s-22.458 21.473-45.134 5.36c-22.675-16.113-39.232-44.638-36.981-63.711zm10.834 7.699c-1.657 14.04 10.531 35.038 27.223 46.899s31.567 10.095 33.224-3.946c1.657-14.04-10.531-35.038-27.223-46.899s-31.567-10.095-33.224 3.946" fill="#1e65fd"/><path d="m483.994 458.193 43.046-36.649c8.008-6.818 23.006-4.787 39.274 6.773 22.675 16.113 39.232 44.638 36.981 63.711-.636 5.39-2.706 9.448-5.86 12.133l-43.046 36.649c3.154-2.685 5.224-6.744 5.86-12.133 2.251-19.073-14.306-47.598-36.981-63.711-16.268-11.56-31.265-13.591-39.274-6.773z" fill="#fd98a4"/><path d="M522.193 474.079c-11.492-8.166-22.122-9.873-28.171-5.562-152.977 109.015-305.94 218.026-458.916 327.041.198-.141.405-.269.607-.404-.248.165-.5.326-.741.5a171.215 171.215 0 0 0-9.642 8.12c-1.532 1.401-3.357 3.495-4.744 5.039-1.947 2.169-4.243 5.319-5.926 7.699-1.173 1.659-2.556 3.995-3.584 5.748-.413.704-4.107 7.111-6.745 15.175-1.018 3.111-2.051 7.361-2.76 10.558-.417 1.881-.693 4.442-.99 6.346-.111 1.165-.292 2.715-.37 3.883-.239 3.614-.31 8.462-.036 12.074.157 2.07.575 7.569 1.981 13.555.804 3.423 3.252 13.842 10.057 25.447a110.61 110.61 0 0 0 4.197 6.574c1.447 2.075 1.506 2.15 4.618 6.069 0 0 3.524 4.351 7.965 8.49q2.255 2.102 6.347 5.45a59.95 59.95 0 0 0 3.529 2.632c2.564 1.771 6.855 4.734 12.901 7.648 5.902 2.845 10.49 4.304 11.35 4.567 1.58.484 3.681 1.157 5.291 1.53 2.746.636 6.431 1.395 9.215 1.83 2.714.423 7.635.875 12.026.867 3.801-.008 8.886-.303 12.638-.913 5.478-.891 8.796-1.592 15.066-3.653 3.829-1.258 8.721-3.541 12.322-5.35 2.925-1.469 6.646-3.798 9.276-5.747 3.375-2.501 7.596-6.202 10.688-9.046.312-.312.6-.654.896-.985-.26.289-.509.593-.781.868 132.011-133.618 264.015-267.236 396.026-400.854 1.936-1.96 3.208-4.732 3.629-8.295 1.657-14.041-10.531-35.038-27.222-46.9z" fill="#231f20"/><path d="M611.726 416.227c-134.351-97.212-141.671-252.531-16.349-346.913 125.321-94.383 335.828-92.089 470.179 5.123s141.671 252.531 16.349 346.913c-125.321 94.383-335.828 92.089-470.179-5.123zm26.632-20.058c118.583 85.803 304.382 87.827 414.995 4.522s104.152-220.394-14.431-306.197S734.54 6.667 623.927 89.972s-104.152 220.395 14.431 306.197" fill="#1e65fd"/></svg></g></svg>